<?xml version="1.0" encoding="UTF-8" standalone="no"?>
<svg xmlns="http://www.w3.org/2000/svg"
     xmlns:xlink="http://www.w3.org/1999/xlink"
     width="864px" height="639px" viewBox="0 0 864 639">
<title>iris_3d.svg</title>
<desc>
Creator: GL2PS 1.4.0, (C) 1999-2017 C. Geuzaine
For: Generated by rgl
CreationDate: Wed Jun 26 23:45:57 2019
</desc>
<defs>
</defs>
<g>
<text fill="#000000" x="212.755" y="493.65" font-size="12" text-anchor="start" dy="0" font-family="Helvetica">1</text>
<polyline fill="none" stroke="#000000" stroke-width="1" stroke-linecap="butt" stroke-linejoin="miter" points="237.946,479.476 228.571,483.887"/>
<text fill="#000000" x="211.87" y="441.162" font-size="12" text-anchor="start" dy="0" font-family="Helvetica">2</text>
<polyline fill="none" stroke="#000000" stroke-width="1" stroke-linecap="butt" stroke-linejoin="miter" points="237.16,428.709 227.736,432.274"/>
<text fill="#000000" x="210.978" y="388.28" font-size="12" text-anchor="start" dy="0" font-family="Helvetica">3</text>
<polyline fill="none" stroke="#000000" stroke-width="1" stroke-linecap="butt" stroke-linejoin="miter" points="236.367,377.574 226.896,380.28"/>
<text fill="#000000" x="210.079" y="335" font-size="12" text-anchor="start" dy="0" font-family="Helvetica">4</text>
<polyline fill="none" stroke="#000000" stroke-width="1" stroke-linecap="butt" stroke-linejoin="miter" points="235.569,326.068 226.049,327.902"/>
<text fill="#000000" x="209.174" y="281.318" font-size="12" text-anchor="start" dy="0" font-family="Helvetica">5</text>
<polyline fill="none" stroke="#000000" stroke-width="1" stroke-linecap="butt" stroke-linejoin="miter" points="234.765,274.185 225.195,275.135"/>
<text fill="#000000" x="208.261" y="227.228" font-size="12" text-anchor="start" dy="0" font-family="Helvetica">6</text>
<polyline fill="none" stroke="#000000" stroke-width="1" stroke-linecap="butt" stroke-linejoin="miter" points="233.955,221.921 224.336,221.974"/>
<polyline fill="none" stroke="#060606" stroke-width="1" stroke-linecap="butt" stroke-linejoin="miter" points="233.148,169.881 238.016,483.951"/>
<polyline fill="none" stroke="#000000" stroke-width="1" stroke-linecap="butt" stroke-linejoin="miter" points="238.016,483.951 233.148,169.881"/>
<polyline fill="none" stroke="#000000" stroke-width="1" stroke-linecap="butt" stroke-linejoin="miter" points="288.799,487.411 280.171,492.017"/>
<text fill="#000000" x="265.124" y="501.984" font-size="12" text-anchor="start" dy="0" font-family="Helvetica">4</text>
<text fill="#000000" x="317.725" y="506.365" font-size="12" text-anchor="start" dy="0" font-family="Helvetica">3.5</text>
<polyline fill="none" stroke="#000000" stroke-width="1" stroke-linecap="butt" stroke-linejoin="miter" points="348.741,491.496 341.02,496.246"/>
<polyline fill="none" stroke="#000000" stroke-width="1" stroke-linecap="butt" stroke-linejoin="miter" points="410.587,495.71 403.837,500.611"/>
<text fill="#000000" x="334.986" y="559.909" font-size="12" text-anchor="start" dy="0" font-family="Helvetica">Sepal.Width</text>
<text fill="#000000" x="390.725" y="510.89" font-size="12" text-anchor="start" dy="0" font-family="Helvetica">3</text>
<text fill="#000000" x="447.495" y="515.566" font-size="12" text-anchor="start" dy="0" font-family="Helvetica">2.5</text>
<polyline fill="none" stroke="#000000" stroke-width="1" stroke-linecap="butt" stroke-linejoin="miter" points="474.429,500.059 468.717,505.12"/>
<text fill="#000000" x="524.873" y="520.402" font-size="12" text-anchor="start" dy="0" font-family="Helvetica">2</text>
<polyline fill="none" stroke="#000000" stroke-width="1" stroke-linecap="butt" stroke-linejoin="miter" points="540.365,504.552 535.764,509.779"/>
<polyline fill="none" stroke="#040404" stroke-width="1" stroke-linecap="butt" stroke-linejoin="miter" points="238.016,483.951 545.196,504.881"/>
<polyline fill="none" stroke="#000000" stroke-width="1" stroke-linecap="butt" stroke-linejoin="miter" points="545.196,504.881 238.016,483.951"/>
<circle fill="#ff0000" cx="336.899" cy="448.276" r="2"/>
<circle fill="#ff0000" cx="336.429" cy="449.958" r="2"/>
<circle fill="#ff0000" cx="338.852" cy="445.336" r="2"/>
<circle fill="#ff0000" cx="338.812" cy="440.442" r="2"/>
<circle fill="#ff0000" cx="347.433" cy="479.7" r="2"/>
<polyline fill="none" stroke="#000000" stroke-width="1" stroke-linecap="butt" stroke-linejoin="miter" points="348.633,431.006 238.016,483.951 348.633,431.006"/>
<circle fill="#ff0000" cx="290.889" cy="433.332" r="2"/>
<circle fill="#ff0000" cx="306.346" cy="441.904" r="2"/>
<circle fill="#ff0000" cx="336.267" cy="430.81" r="2"/>
<circle fill="#ff0000" cx="308.099" cy="441.988" r="2"/>
<circle fill="#ff0000" cx="338.69" cy="425.738" r="2"/>
<polyline fill="none" stroke="#0a0a0a" stroke-width="1" stroke-linecap="butt" stroke-linejoin="miter" points="348.633,431.006 346.725,179.844"/>
<polyline fill="none" stroke="#000000" stroke-width="1" stroke-linecap="butt" stroke-linejoin="miter" points="346.725,179.844 348.633,431.006 597.604,444.103"/>
<polyline fill="none" stroke="#2e2e2e" stroke-width="1" stroke-linecap="butt" stroke-linejoin="miter" points="597.604,444.103 348.633,431.006"/>
<circle fill="#0000ff" cx="407.882" cy="204.169" r="2"/>
<circle fill="#0000ff" cx="403.503" cy="191.03" r="2"/>
<circle fill="#0000ff" cx="485.608" cy="216.76" r="2"/>
<circle fill="#0000ff" cx="483.88" cy="194.576" r="2"/>
<circle fill="#0000ff" cx="413.06" cy="216.847" r="2"/>
<circle fill="#0000ff" cx="501.612" cy="216.673" r="2"/>
<circle fill="#0000ff" cx="455.156" cy="221.255" r="2"/>
<circle fill="#0000ff" cx="489.138" cy="207.644" r="2"/>
<circle fill="#0000ff" cx="476.521" cy="230.282" r="2"/>
<circle fill="#00ff00" cx="451.162" cy="280.307" r="2"/>
<circle fill="#0000ff" cx="474.65" cy="225.797" r="2"/>
<circle fill="#0000ff" cx="449.107" cy="235.043" r="2"/>
<circle fill="#00ff00" cx="459.923" cy="271.694" r="2"/>
<circle fill="#0000ff" cx="459.925" cy="262.555" r="2"/>
<circle fill="#0000ff" cx="459.929" cy="248.824" r="2"/>
<circle fill="#0000ff" cx="447.036" cy="225.924" r="2"/>
<circle fill="#0000ff" cx="434.065" cy="235.214" r="2"/>
<circle fill="#0000ff" cx="434.065" cy="235.214" r="2"/>
<circle fill="#00ff00" cx="455.898" cy="295.405" r="2"/>
<circle fill="#0000ff" cx="468.865" cy="244.445" r="2"/>
<circle fill="#00ff00" cx="455.898" cy="281.572" r="2"/>
<circle fill="#00ff00" cx="490.843" cy="277.019" r="2"/>
<circle fill="#0000ff" cx="455.899" cy="239.908" r="2"/>
<circle fill="#00ff00" cx="466.88" cy="267.825" r="2"/>
<circle fill="#0000ff" cx="466.887" cy="258.544" r="2"/>
<circle fill="#00ff00" cx="464.874" cy="296.063" r="2"/>
<circle fill="#0000ff" cx="440.725" cy="263.524" r="2"/>
<circle fill="#00ff00" cx="475.97" cy="286.93" r="2"/>
<circle fill="#00ff00" cx="438.595" cy="291.944" r="2"/>
<circle fill="#0000ff" cx="462.884" cy="259.033" r="2"/>
<circle fill="#0000ff" cx="438.55" cy="254.392" r="2"/>
<circle fill="#0000ff" cx="462.891" cy="244.917" r="2"/>
<circle fill="#0000ff" cx="462.898" cy="230.774" r="2"/>
<circle fill="#00ff00" cx="425.301" cy="282.811" r="2"/>
<circle fill="#0000ff" cx="414.143" cy="240.313" r="2"/>
<circle fill="#0000ff" cx="522.882" cy="230.692" r="2"/>
<circle fill="#00ff00" cx="485.237" cy="287.52" r="2"/>
<circle fill="#0000ff" cx="449.663" cy="245.026" r="2"/>
<circle fill="#00ff00" cx="472.035" cy="301.932" r="2"/>
<circle fill="#0000ff" cx="425.17" cy="221.4" r="2"/>
<circle fill="#0000ff" cx="411.826" cy="249.935" r="2"/>
<circle fill="#0000ff" cx="483.422" cy="240.418" r="2"/>
<circle fill="#0000ff" cx="483.422" cy="240.418" r="2"/>
<circle fill="#0000ff" cx="494.763" cy="254.791" r="2"/>
<circle fill="#ff0000" cx="355.781" cy="427.41" r="2"/>
<circle fill="#0000ff" cx="470.103" cy="240.513" r="2"/>
<circle fill="#00ff00" cx="407.194" cy="293.404" r="2"/>
<circle fill="#0000ff" cx="481.442" cy="264.507" r="2"/>
<circle fill="#00ff00" cx="468.021" cy="302.974" r="2"/>
<circle fill="#0000ff" cx="492.844" cy="274.201" r="2"/>
<circle fill="#00ff00" cx="454.576" cy="288.902" r="2"/>
<circle fill="#0000ff" cx="479.459" cy="279.218" r="2"/>
<circle fill="#0000ff" cx="454.575" cy="274.489" r="2"/>
<circle fill="#00ff00" cx="515.879" cy="274.476" r="2"/>
<circle fill="#0000ff" cx="515.9" cy="269.657" r="2"/>
<circle fill="#00ff00" cx="465.991" cy="284.266" r="2"/>
<circle fill="#00ff00" cx="477.419" cy="318.163" r="2"/>
<circle fill="#00ff00" cx="477.471" cy="284.432" r="2"/>
<circle fill="#00ff00" cx="539.037" cy="298.934" r="2"/>
<circle fill="#0000ff" cx="452.435" cy="279.68" r="2"/>
<circle fill="#00ff00" cx="427.361" cy="279.759" r="2"/>
<circle fill="#00ff00" cx="463.912" cy="294.369" r="2"/>
<circle fill="#00ff00" cx="450.278" cy="309.211" r="2"/>
<circle fill="#ff0000" cx="384.064" cy="451.062" r="2"/>
<circle fill="#ff0000" cx="358.741" cy="441.627" r="2"/>
<circle fill="#0000ff" cx="450.261" cy="265.452" r="2"/>
<circle fill="#0000ff" cx="500.767" cy="240.914" r="2"/>
<circle fill="#00ff00" cx="487.121" cy="265.495" r="2"/>
<circle fill="#ff0000" cx="355.955" cy="443.059" r="2"/>
<circle fill="#ff0000" cx="392.818" cy="443.507" r="2"/>
<circle fill="#ff0000" cx="392.775" cy="433.789" r="2"/>
<circle fill="#00ff00" cx="445.867" cy="310.377" r="2"/>
<circle fill="#00ff00" cx="483.052" cy="325.27" r="2"/>
<circle fill="#00ff00" cx="483.07" cy="315.442" r="2"/>
<circle fill="#0000ff" cx="471.396" cy="265.983" r="2"/>
<circle fill="#00ff00" cx="457.532" cy="310.624" r="2"/>
<circle fill="#00ff00" cx="545.951" cy="320.42" r="2"/>
<circle fill="#00ff00" cx="494.854" cy="320.633" r="2"/>
<circle fill="#0000ff" cx="483.165" cy="266.1" r="2"/>
<circle fill="#0000ff" cx="483.165" cy="266.1" r="2"/>
<circle fill="#00ff00" cx="469.261" cy="315.807" r="2"/>
<circle fill="#00ff00" cx="443.623" cy="315.911" r="2"/>
<circle fill="#0000ff" cx="546.264" cy="271.03" r="2"/>
<circle fill="#00ff00" cx="469.28" cy="296.042" r="2"/>
<circle fill="#00ff00" cx="455.354" cy="340.893" r="2"/>
<circle fill="#00ff00" cx="443.606" cy="296.133" r="2"/>
<circle fill="#ff0000" cx="376.048" cy="445.794" r="2"/>
<circle fill="#ff0000" cx="350.275" cy="445.981" r="2"/>
<circle fill="#00ff00" cx="492.85" cy="346.054" r="2"/>
<circle fill="#ff0000" cx="387.63" cy="451.358" r="2"/>
<circle fill="#ff0000" cx="373.351" cy="452.215" r="2"/>
<circle fill="#ff0000" cx="373.351" cy="452.215" r="2"/>
<circle fill="#0000ff" cx="467.185" cy="276.597" r="2"/>
<circle fill="#00ff00" cx="479.031" cy="311.725" r="2"/>
<circle fill="#0000ff" cx="505.021" cy="271.659" r="2"/>
<circle fill="#ff0000" cx="384.949" cy="447.938" r="2"/>
<circle fill="#ff0000" cx="358.97" cy="453.079" r="2"/>
<circle fill="#00ff00" cx="502.941" cy="327.261" r="2"/>
<circle fill="#00ff00" cx="439.015" cy="297.152" r="2"/>
<circle fill="#ff0000" cx="370.621" cy="458.716" r="2"/>
<circle fill="#ff0000" cx="396.603" cy="438.662" r="2"/>
<circle fill="#ff0000" cx="370.531" cy="443.819" r="2"/>
<circle fill="#ff0000" cx="382.256" cy="449.453" r="2"/>
<circle fill="#ff0000" cx="356.104" cy="454.629" r="2"/>
<circle fill="#ff0000" cx="382.23" cy="444.47" r="2"/>
<circle fill="#00ff00" cx="489.007" cy="302.524" r="2"/>
<circle fill="#00ff00" cx="501.041" cy="322.942" r="2"/>
<circle fill="#ff0000" cx="394.044" cy="455.117" r="2"/>
<circle fill="#00ff00" cx="513.133" cy="338.381" r="2"/>
<circle fill="#00ff00" cx="513.153" cy="333.335" r="2"/>
<circle fill="#ff0000" cx="405.911" cy="465.814" r="2"/>
<circle fill="#00ff00" cx="525.42" cy="323.525" r="2"/>
<circle fill="#ff0000" cx="429.735" cy="447.11" r="2"/>
<circle fill="#ff0000" cx="376.735" cy="447.496" r="2"/>
<circle fill="#ff0000" cx="376.65" cy="432.326" r="2"/>
<circle fill="#ff0000" cx="415.25" cy="453.036" r="2"/>
<circle fill="#ff0000" cx="415.25" cy="453.036" r="2"/>
<circle fill="#00ff00" cx="470.59" cy="329.563" r="2"/>
<circle fill="#ff0000" cx="427.313" cy="458.799" r="2"/>
<circle fill="#ff0000" cx="412.686" cy="449.525" r="2"/>
<circle fill="#ff0000" cx="424.839" cy="460.427" r="2"/>
<circle fill="#ff0000" cx="424.839" cy="460.427" r="2"/>
<circle fill="#ff0000" cx="398.034" cy="465.738" r="2"/>
<circle fill="#00ff00" cx="492.978" cy="377.355" r="2"/>
<circle fill="#ff0000" cx="371.151" cy="460.836" r="2"/>
<circle fill="#ff0000" cx="397.971" cy="450.408" r="2"/>
<circle fill="#ff0000" cx="395.32" cy="462.284" r="2"/>
<circle fill="#ff0000" cx="407.5" cy="457.855" r="2"/>
<circle fill="#00ff00" cx="516.066" cy="363.751" r="2"/>
<circle fill="#00ff00" cx="501.487" cy="364.323" r="2"/>
<circle fill="#0000ff" cx="489.046" cy="300.97" r="2"/>
<circle fill="#ff0000" cx="389.848" cy="470.869" r="2"/>
<circle fill="#ff0000" cx="414.615" cy="472.41" r="2"/>
<circle fill="#ff0000" cx="427.105" cy="467.928" r="2"/>
<circle fill="#ff0000" cx="411.999" cy="484.736" r="2"/>
<circle fill="#ff0000" cx="505.85" cy="476.122" r="2"/>
<polyline fill="none" stroke="#353535" stroke-width="1" stroke-linecap="butt" stroke-linejoin="miter" points="547.155,197.426 545.196,504.881"/>
<polyline fill="none" stroke="#000000" stroke-width="1" stroke-linecap="butt" stroke-linejoin="miter" points="547.155,197.426 545.196,504.881"/>
<circle fill="#00ff00" cx="549.255" cy="294.783" r="2"/>
<circle fill="#00ff00" cx="554.37" cy="354.507" r="2"/>
<text fill="#000000" x="552.981" y="348.831" font-size="12" text-anchor="start" dy="0" font-family="Helvetica">Petal.Length</text>
<polyline fill="none" stroke="#000000" stroke-width="1" stroke-linecap="butt" stroke-linejoin="miter" points="346.725,179.844 233.148,169.881 346.725,179.844"/>
<polyline fill="none" stroke="#000000" stroke-width="1" stroke-linecap="butt" stroke-linejoin="miter" points="293.32,175.16 293.103,156.041"/>
<text fill="#000000" x="318.267" y="146.828" font-size="12" text-anchor="start" dy="0" font-family="Helvetica">7</text>
<text fill="#000000" x="289.33" y="142.071" font-size="12" text-anchor="start" dy="0" font-family="Helvetica">6</text>
<polyline fill="none" stroke="#000000" stroke-width="1" stroke-linecap="butt" stroke-linejoin="miter" points="260.707,172.299 260.43,151.923"/>
<text fill="#000000" x="256.596" y="136.69" font-size="12" text-anchor="start" dy="0" font-family="Helvetica">5</text>
<polyline fill="none" stroke="#000000" stroke-width="1" stroke-linecap="butt" stroke-linejoin="miter" points="322.074,168.557 233.148,169.881"/>
<polyline fill="none" stroke="#141414" stroke-width="1" stroke-linecap="butt" stroke-linejoin="miter" points="322.074,168.557 233.148,169.881"/>
<polyline fill="none" stroke="#000000" stroke-width="1" stroke-linecap="butt" stroke-linejoin="miter" points="322.159,177.689 321.992,159.681"/>
<circle fill="#0000ff" cx="506.74" cy="190.112" r="2"/>
<circle fill="#0000ff" cx="528.084" cy="180.987" r="2"/>
<polyline fill="none" stroke="#000000" stroke-width="1" stroke-linecap="butt" stroke-linejoin="miter" points="547.282,177.458 346.725,179.844"/>
<polyline fill="none" stroke="#3c3c3c" stroke-width="1" stroke-linecap="butt" stroke-linejoin="miter" points="547.282,177.458 346.725,179.844"/>
<polyline fill="none" stroke="#000000" stroke-width="1" stroke-linecap="butt" stroke-linejoin="miter" points="547.155,197.426 547.36,165.203"/>
<polyline fill="none" stroke="#353535" stroke-width="1" stroke-linecap="butt" stroke-linejoin="miter" points="547.155,197.426 547.36,165.203"/>
<polyline fill="none" stroke="#000000" stroke-width="1" stroke-linecap="butt" stroke-linejoin="miter" points="547.282,177.458 600.294,176.828"/>
<polyline fill="none" stroke="#3c3c3c" stroke-width="1" stroke-linecap="butt" stroke-linejoin="miter" points="547.282,177.458 600.294,176.828"/>
<polyline fill="none" stroke="#000000" stroke-width="1" stroke-linecap="butt" stroke-linejoin="miter" points="322.074,168.557 547.36,165.203"/>
<polyline fill="none" stroke="#141414" stroke-width="1" stroke-linecap="butt" stroke-linejoin="miter" points="322.074,168.557 547.36,165.203"/>
<polyline fill="none" stroke="#000000" stroke-width="1" stroke-linecap="butt" stroke-linejoin="miter" points="597.604,444.103 600.294,176.828"/>
<polyline fill="none" stroke="#484848" stroke-width="1" stroke-linecap="butt" stroke-linejoin="miter" points="600.294,176.828 597.604,444.103"/>
<polyline fill="none" stroke="#000000" stroke-width="1" stroke-linecap="butt" stroke-linejoin="miter" points="600.294,176.828 547.36,165.203 600.294,176.828"/>
<polyline fill="none" stroke="#000000" stroke-width="1" stroke-linecap="butt" stroke-linejoin="miter" points="597.604,444.103 545.196,504.881 597.604,444.103"/>
<text fill="#000000" x="580.99" y="523.001" font-size="12" text-anchor="start" dy="0" font-family="Helvetica">Sepal.Length</text>
</g>
</svg>
